<mxfile host="app.diagrams.net" modified="2023-04-11T00:07:01.802Z" agent="Mozilla/5.0 (X11; Ubuntu; Linux x86_64; rv:109.0) Gecko/20100101 Firefox/111.0" version="21.1.5" etag="e4hhnEHBVobFKLElGJzS" type="github">
  <diagram name="PÃ¡gina-1" id="ttuTQuzj8OeSIRSPejDs">
    <mxGraphModel>
      <root>
        <mxCell id="0" />
        <mxCell id="1" parent="0" />
      </root>
    </mxGraphModel>
  </diagram>
</mxfile>
